<svg width="31" height="31" viewBox="0 0 31 31" fill="none" xmlns="http://www.w3.org/2000/svg">
<rect x="0.299805" y="0.839417" width="30" height="30" rx="15" fill="#0A0B0D"/>
<path fill-rule="evenodd" clip-rule="evenodd" d="M13.243 13.4146H16.2142V14.8946C16.6422 14.0434 17.7398 13.2786 19.3886 13.2786C22.5494 13.2786 23.2998 14.973 23.2998 18.0818V23.8394H20.0998V18.7898C20.0998 17.0194 19.6718 16.021 18.5822 16.021C17.071 16.021 16.443 17.097 16.443 18.789V23.8394H13.243V13.4146ZM7.7558 23.7034H10.9558V13.2786H7.7558V23.7034ZM11.4142 9.87942C11.4143 10.1476 11.3611 10.4132 11.2577 10.6607C11.1543 10.9082 11.0027 11.1326 10.8118 11.321C10.4249 11.7055 9.90125 11.9207 9.3558 11.9194C8.81132 11.9191 8.28885 11.7044 7.9014 11.3218C7.71117 11.1328 7.56011 10.9081 7.45688 10.6606C7.35365 10.413 7.30027 10.1476 7.2998 9.87942C7.2998 9.33782 7.5158 8.81942 7.9022 8.43702C8.28931 8.05394 8.812 7.83918 9.3566 7.83942C9.9022 7.83942 10.4254 8.05462 10.8118 8.43702C11.1974 8.81942 11.4142 9.33782 11.4142 9.87942Z" fill="white"/>
</svg>
