<svg width="31" height="31" viewBox="0 0 31 31" fill="none" xmlns="http://www.w3.org/2000/svg">
<rect x="0.299805" y="0.839417" width="30" height="30" rx="15" fill="#0A0B0D"/>
<g clip-path="url(#clip0_8055_325)">
<path fill-rule="evenodd" clip-rule="evenodd" d="M7.69971 8.23851H8.89971C12.6127 8.23851 16.1737 9.71351 18.7992 12.339C21.4247 14.9645 22.8997 18.5255 22.8997 22.2385V23.4385H20.4997V22.2385C20.4997 19.162 19.2776 16.2115 17.1021 14.0361C14.9267 11.8606 11.9762 10.6385 8.89971 10.6385H7.69971V8.23851ZM7.69971 13.8385H8.89971C11.1275 13.8385 13.2641 14.7235 14.8394 16.2988C16.4147 17.8741 17.2997 20.0107 17.2997 22.2385V23.4385H14.8997V22.2385C14.8997 20.6472 14.2676 19.1211 13.1423 17.9959C12.0171 16.8707 10.491 16.2385 8.89971 16.2385H7.69971V13.8385Z" fill="white"/>
<path d="M9.69971 23.4386C10.8043 23.4386 11.6997 22.5432 11.6997 21.4386C11.6997 20.334 10.8043 19.4386 9.69971 19.4386C8.59514 19.4386 7.69971 20.334 7.69971 21.4386C7.69971 22.5432 8.59514 23.4386 9.69971 23.4386Z" fill="white"/>
</g>
<defs>
<clipPath id="clip0_8055_325">
<rect width="16" height="16" fill="white" transform="translate(7.2998 7.83942)"/>
</clipPath>
</defs>
</svg>
