<svg width="30" height="31" viewBox="0 0 30 31" fill="none" xmlns="http://www.w3.org/2000/svg">
<g clip-path="url(#clip0_8055_312)">
<path d="M15 30.8397C23.2843 30.8397 30 24.124 30 15.8397C30 7.55547 23.2843 0.839745 15 0.839745C6.71573 0.839745 0 7.55547 0 15.8397C0 24.124 6.71573 30.8397 15 30.8397Z" fill="#0A0B0D"/>
<path fill-rule="evenodd" clip-rule="evenodd" d="M6.91535 15.6974C11.2103 13.8261 14.0743 12.5925 15.5073 11.9964C19.5988 10.2946 20.449 9.99902 21.0031 9.98926C21.125 9.98712 21.3975 10.0173 21.574 10.1606C21.723 10.2815 21.7641 10.4449 21.7837 10.5595C21.8033 10.6742 21.8277 10.9354 21.8083 11.1395C21.5866 13.4692 20.6272 19.1226 20.1391 21.7318C19.9326 22.8358 19.526 23.206 19.1323 23.2423C18.2767 23.321 17.627 22.6768 16.7984 22.1336C15.5017 21.2836 14.7691 20.7545 13.5105 19.9251C12.0559 18.9665 12.9988 18.4397 13.8278 17.5787C14.0447 17.3533 17.8144 13.9245 17.8874 13.6135C17.8965 13.5746 17.905 13.4296 17.8188 13.353C17.7327 13.2764 17.6055 13.3026 17.5138 13.3234C17.3837 13.353 15.3122 14.7221 11.2993 17.431C10.7113 17.8347 10.1788 18.0314 9.70159 18.0211C9.17555 18.0098 8.16365 17.7237 7.41141 17.4792C6.48876 17.1793 5.75545 17.0207 5.81931 16.5113C5.85257 16.246 6.21791 15.9747 6.91535 15.6974Z" fill="white"/>
</g>
<defs>
<clipPath id="clip0_8055_312">
<rect width="30" height="30" fill="white" transform="translate(0 0.839417)"/>
</clipPath>
</defs>
</svg>
