<svg width="30" height="30" viewBox="0 0 30 30" fill="none" xmlns="http://www.w3.org/2000/svg">
<rect width="30" height="30" rx="15" fill="#0A0B0D"/>
<g clip-path="url(#clip0_8055_309)">
<path d="M12.0334 21.5C18.0697 21.5 21.3722 16.4978 21.3722 12.1612C21.3722 12.0206 21.3691 11.8769 21.3628 11.7362C22.0052 11.2716 22.5597 10.6962 23 10.0369C22.4017 10.3031 21.7664 10.4769 21.1159 10.5525C21.8009 10.1419 22.3137 9.49698 22.5594 8.73718C21.915 9.11904 21.2104 9.38841 20.4756 9.53374C19.9806 9.00771 19.326 8.65941 18.6131 8.5427C17.9003 8.42599 17.1688 8.54737 16.5318 8.88806C15.8949 9.22876 15.3879 9.7698 15.0892 10.4275C14.7906 11.0853 14.717 11.8231 14.8797 12.5269C13.575 12.4614 12.2986 12.1225 11.1333 11.5321C9.96802 10.9417 8.9398 10.113 8.11531 9.09968C7.69627 9.82216 7.56804 10.6771 7.75669 11.4907C7.94534 12.3044 8.43671 13.0156 9.13094 13.48C8.60975 13.4634 8.09998 13.3231 7.64375 13.0706V13.1112C7.64328 13.8694 7.9054 14.6044 8.38554 15.1912C8.86568 15.778 9.53422 16.1804 10.2775 16.33C9.7947 16.4621 9.28799 16.4813 8.79656 16.3862C9.0063 17.0383 9.41438 17.6086 9.96385 18.0176C10.5133 18.4265 11.1767 18.6537 11.8616 18.6675C10.6989 19.5807 9.26278 20.0761 7.78438 20.0737C7.52219 20.0733 7.26027 20.0573 7 20.0256C8.5019 20.9892 10.249 21.5009 12.0334 21.5Z" fill="white"/>
</g>
<defs>
<clipPath id="clip0_8055_309">
<rect width="16" height="16" fill="white" transform="translate(7 7)"/>
</clipPath>
</defs>
</svg>
