<svg width="30" height="31" viewBox="0 0 30 31" fill="none" xmlns="http://www.w3.org/2000/svg">
<rect y="0.839417" width="30" height="30" rx="15" fill="#0A0B0D"/>
<g clip-path="url(#clip0_8055_316)">
<path d="M22.8406 12.6395C22.8406 12.6395 22.6844 11.5363 22.2031 11.052C21.5937 10.4145 20.9125 10.4113 20.6 10.3738C18.3625 10.2113 15.0031 10.2113 15.0031 10.2113H14.9969C14.9969 10.2113 11.6375 10.2113 9.4 10.3738C9.0875 10.4113 8.40625 10.4145 7.79687 11.052C7.31563 11.5363 7.1625 12.6395 7.1625 12.6395C7.1625 12.6395 7 13.9363 7 15.2301V16.4426C7 17.7363 7.15937 19.0332 7.15937 19.0332C7.15937 19.0332 7.31562 20.1363 7.79375 20.6207C8.40312 21.2582 9.20312 21.2363 9.55938 21.3051C10.8406 21.427 15 21.4645 15 21.4645C15 21.4645 18.3625 21.4582 20.6 21.2988C20.9125 21.2613 21.5937 21.2582 22.2031 20.6207C22.6844 20.1363 22.8406 19.0332 22.8406 19.0332C22.8406 19.0332 23 17.7395 23 16.4426V15.2301C23 13.9363 22.8406 12.6395 22.8406 12.6395ZM13.3469 17.9145V13.4176L17.6687 15.6738L13.3469 17.9145Z" fill="white"/>
</g>
<defs>
<clipPath id="clip0_8055_316">
<rect width="16" height="16" fill="white" transform="translate(7 7.83942)"/>
</clipPath>
</defs>
</svg>
