<svg width="195" height="32" viewBox="0 0 195 32" fill="none" xmlns="http://www.w3.org/2000/svg">
<path d="M28.4655 7.89722C26.7454 7.89722 25.1931 8.58726 24.0534 9.70946C22.9206 8.59423 21.3613 7.89722 19.6482 7.89722C17.9351 7.89722 16.3619 8.58726 15.2291 9.70946C14.0964 8.58726 12.5441 7.89722 10.817 7.89722H8.18094V6.76108C8.18094 4.69791 9.28572 3.73603 10.7331 3.73603C11.5932 3.73603 12.4252 4.04272 13.3202 4.62821L14.8725 1.49861C13.4951 0.606429 11.9428 0.125488 10.4604 0.125488C7.04819 0.132458 3.97859 2.23048 3.97859 6.76805V7.90419H0V11.5844H3.97859V24.6047H8.18094V11.5844H10.817C12.2364 11.5844 13.3832 12.7345 13.3832 14.1425V24.5977H17.0681V14.1425C17.0681 12.7275 18.2218 11.5844 19.6412 11.5844C21.0607 11.5844 22.1305 12.6578 22.2074 14.0031C22.2074 14.0519 22.2074 14.1007 22.2074 14.1494V24.6047H25.8923V14.2192C25.8923 14.2192 25.8923 14.1704 25.8923 14.1494C25.8923 14.1285 25.8923 14.1007 25.8923 14.0797C25.8923 14.0658 25.8923 14.0588 25.8923 14.0449C25.9413 12.6787 27.067 11.5844 28.4585 11.5844C29.8499 11.5844 31.0246 12.7345 31.0246 14.1425V24.5977H34.7165V14.1425C34.7165 10.6992 31.9127 7.90419 28.4585 7.90419L28.4655 7.89722Z" fill="white"/>
<path d="M38.3247 2.11907C38.3247 1.63812 38.4785 1.23386 38.7862 0.906258C39.0939 0.578661 39.4854 0.411377 39.9679 0.411377C40.4504 0.411377 40.8489 0.578661 41.1636 0.906258C41.4852 1.23386 41.646 1.63812 41.646 2.11907C41.646 2.60001 41.4852 2.99034 41.1636 3.29702C40.8419 3.60371 40.4434 3.75705 39.9679 3.75705C39.4924 3.75705 39.0939 3.60371 38.7862 3.29702C38.4785 2.99034 38.3247 2.60001 38.3247 2.11907ZM40.793 8.26675V24.6606H39.2197V8.26675H40.793Z" fill="white"/>
<path d="M69.9434 9.56295H66.6221V24.6603H65.0489V9.56295H61.7275V8.2665H65.0489V3.07373H66.6221V8.2665H69.9434V9.56295Z" fill="white"/>
<path d="M86.7319 17.4534H72.7544C72.9152 19.4608 73.5515 20.9872 74.6703 22.0467C75.789 23.1062 77.2084 23.6359 78.9215 23.6359C80.292 23.6359 81.4597 23.3153 82.4317 22.681C83.4036 22.0467 84.1378 21.1406 84.6412 19.9835L86.0117 20.5969C85.3055 22.0328 84.3266 23.1341 83.0819 23.9077C81.8373 24.6814 80.4179 25.0718 78.8167 25.0718C77.649 25.0718 76.5931 24.8696 75.6492 24.4584C74.7052 24.0471 73.8941 23.4756 73.2229 22.7368C72.5516 21.9979 72.0412 21.1057 71.6776 20.0532C71.321 19.0077 71.1392 17.8437 71.1392 16.5682C71.1392 15.2926 71.321 14.1565 71.6846 13.0831C72.0482 12.0097 72.5726 11.0896 73.2438 10.3159C73.9151 9.54225 74.7402 8.93584 75.7121 8.50369C76.684 8.07154 77.7748 7.85547 78.9845 7.85547C80.1941 7.85547 81.208 8.0576 82.152 8.4549C83.0959 8.8522 83.907 9.43072 84.5853 10.1765C85.2565 10.9293 85.7809 11.8354 86.1585 12.8949C86.5361 13.9544 86.7249 15.1323 86.7249 16.4288V17.4534H86.7319ZM85.0887 16.1221C85.0188 13.9125 84.4314 12.2258 83.3197 11.0478C82.2079 9.87682 80.7465 9.29132 78.9425 9.29132C77.1385 9.29132 75.6701 9.89773 74.5444 11.1036C73.4256 12.3094 72.8173 13.9822 72.7264 16.1221H85.0957H85.0887Z" fill="white"/>
<path d="M90.333 0H91.9063V24.6604H90.333V0Z" fill="white"/>
<path d="M96.8779 0H98.4512V24.6604H96.8779V0Z" fill="white"/>
<path d="M102.562 2.11907C102.562 1.63812 102.716 1.23386 103.024 0.906258C103.332 0.578661 103.723 0.411377 104.206 0.411377C104.688 0.411377 105.087 0.578661 105.401 0.906258C105.723 1.23386 105.884 1.63812 105.884 2.11907C105.884 2.60001 105.723 2.99034 105.401 3.29702C105.08 3.60371 104.681 3.75705 104.206 3.75705C103.73 3.75705 103.332 3.60371 103.024 3.29702C102.716 2.99034 102.562 2.60001 102.562 2.11907ZM105.031 8.26675V24.6606H103.458V8.26675H105.031Z" fill="white"/>
<path d="M124.183 27.2532C124.183 30.4177 121.512 31.9999 116.162 31.9999C114.149 31.9999 112.359 31.7002 110.785 31.1147C109.233 30.5222 108.457 29.3722 108.457 27.6645C108.457 26.8699 108.681 26.131 109.128 25.4619C109.576 24.7928 110.163 24.2839 110.89 23.9424C110.387 23.7403 109.995 23.4336 109.709 23.0363C109.422 22.639 109.282 22.179 109.282 21.6562C109.282 20.994 109.471 20.4225 109.848 19.9346C110.226 19.4467 110.778 19.133 111.513 18.9936C110.778 18.422 110.219 17.732 109.835 16.9095C109.443 16.087 109.254 15.1879 109.254 14.2121C109.254 13.3269 109.422 12.4904 109.751 11.7167C110.079 10.9431 110.548 10.2739 111.156 9.70237C111.764 9.13082 112.478 8.68473 113.296 8.35016C114.121 8.02256 115.023 7.85528 116.002 7.85528C117.512 7.85528 118.799 8.21076 119.875 8.91475C120.603 7.63921 121.896 7.06068 123.749 7.17221V8.77534C123.679 8.75443 123.511 8.74049 123.232 8.74049C122.246 8.74049 121.47 9.06112 120.903 9.6954C121.498 10.267 121.959 10.9361 122.288 11.7098C122.616 12.4835 122.784 13.3129 122.784 14.2051C122.784 15.0973 122.616 15.9198 122.288 16.6795C121.959 17.4392 121.491 18.1014 120.882 18.659C120.274 19.2166 119.561 19.6558 118.743 19.9764C117.918 20.297 117.016 20.4573 116.037 20.4573C114.897 20.4573 113.806 20.2273 112.778 19.7743C111.408 19.7952 110.723 20.3179 110.723 21.3425C110.723 21.7956 110.862 22.165 111.149 22.4508C111.436 22.7366 111.911 22.876 112.568 22.876H118.938C120.582 22.876 121.868 23.2663 122.791 24.04C123.714 24.8137 124.176 25.8871 124.176 27.2532H124.183ZM122.609 27.2393C122.609 26.3332 122.295 25.6222 121.665 25.0995C121.036 24.5767 120.127 24.3188 118.938 24.3188H113.317C112.198 24.3397 111.345 24.6464 110.764 25.2389C110.184 25.8244 109.89 26.5423 109.89 27.3787C109.89 28.6891 110.506 29.5534 111.743 29.9577C112.981 30.3619 114.428 30.571 116.093 30.571C118.148 30.571 119.75 30.341 120.889 29.874C122.029 29.407 122.602 28.5288 122.602 27.2393H122.609ZM115.96 19.0912C117.624 19.0912 118.931 18.6311 119.868 17.7111C120.805 16.791 121.274 15.634 121.274 14.2469C121.274 13.5151 121.148 12.8529 120.896 12.2465C120.645 11.6401 120.288 11.1173 119.833 10.6573C119.379 10.2042 118.827 9.84875 118.19 9.59782C117.547 9.3469 116.834 9.22143 116.03 9.22143C115.226 9.22143 114.505 9.3469 113.855 9.59782C113.205 9.84875 112.652 10.2042 112.191 10.6573C111.736 11.1103 111.38 11.6401 111.128 12.2465C110.876 12.8529 110.75 13.5151 110.75 14.2469C110.75 15.6828 111.219 16.8468 112.156 17.7459C113.093 18.6451 114.358 19.0981 115.96 19.0981V19.0912Z" fill="white"/>
<path d="M141.146 17.4534H127.168C127.329 19.4608 127.966 20.9872 129.084 22.0467C130.203 23.1062 131.623 23.6359 133.336 23.6359C134.706 23.6359 135.874 23.3153 136.846 22.681C137.818 22.0467 138.552 21.1406 139.055 19.9835L140.426 20.5969C139.72 22.0328 138.741 23.1341 137.496 23.9077C136.251 24.6814 134.832 25.0718 133.231 25.0718C132.063 25.0718 131.007 24.8696 130.063 24.4584C129.119 24.0471 128.308 23.4756 127.637 22.7368C126.966 21.9979 126.455 21.1057 126.092 20.0532C125.735 19.0077 125.553 17.8437 125.553 16.5682C125.553 15.2926 125.735 14.1565 126.099 13.0831C126.462 12.0097 126.987 11.0896 127.658 10.3159C128.329 9.54225 129.154 8.93584 130.126 8.50369C131.098 8.07154 132.189 7.85547 133.399 7.85547C134.608 7.85547 135.622 8.0576 136.566 8.4549C137.51 8.8522 138.321 9.43072 138.999 10.1765C139.671 10.9293 140.195 11.8354 140.573 12.8949C140.95 13.9544 141.139 15.1323 141.139 16.4288V17.4534H141.146ZM139.496 16.1221C139.426 13.9125 138.839 12.2258 137.727 11.0478C136.615 9.87682 135.154 9.29132 133.35 9.29132C131.546 9.29132 130.077 9.89773 128.951 11.1036C127.833 12.3094 127.224 13.9822 127.133 16.1221H139.503H139.496Z" fill="white"/>
<path d="M169.716 7.85525C171.45 7.85525 172.94 8.26649 174.184 9.082C175.429 9.90448 176.359 11.0267 176.974 12.4625L175.499 13.0759C175.044 11.891 174.296 10.9639 173.254 10.2948C172.212 9.62567 171.01 9.28413 169.639 9.28413C168.681 9.28413 167.814 9.45142 167.038 9.79295C166.262 10.1345 165.584 10.6224 165.017 11.2567C164.451 11.891 164.004 12.6507 163.696 13.5429C163.388 14.4281 163.234 15.4039 163.234 16.4704C163.234 17.5368 163.388 18.5126 163.696 19.3978C164.004 20.283 164.444 21.0358 165.017 21.6631C165.591 22.2905 166.262 22.7714 167.038 23.1129C167.814 23.4545 168.681 23.6218 169.639 23.6218C170.961 23.6218 172.143 23.2942 173.184 22.632C174.226 21.9698 174.995 21.0498 175.499 19.8648L176.974 20.4782C176.268 21.9838 175.275 23.1199 174.009 23.8936C172.744 24.6673 171.282 25.0576 169.639 25.0576C168.43 25.0576 167.332 24.8485 166.353 24.4233C165.367 24.0051 164.528 23.4126 163.822 22.6668C163.116 21.9141 162.577 21.0079 162.214 19.9485C161.85 18.889 161.661 17.725 161.661 16.4495C161.661 15.1739 161.85 14.0099 162.235 12.9504C162.612 11.891 163.15 10.9849 163.843 10.2321C164.535 9.4793 165.381 8.8938 166.374 8.47559C167.367 8.05738 168.479 7.84131 169.716 7.84131V7.85525Z" fill="white"/>
<path d="M195 17.4534H181.022C181.183 19.4608 181.82 20.9872 182.938 22.0467C184.057 23.1062 185.477 23.6359 187.19 23.6359C188.56 23.6359 189.728 23.3153 190.7 22.681C191.672 22.0467 192.406 21.1406 192.909 19.9835L194.28 20.5969C193.574 22.0328 192.595 23.1341 191.35 23.9077C190.105 24.6814 188.686 25.0718 187.085 25.0718C185.917 25.0718 184.861 24.8696 183.917 24.4584C182.973 24.0471 182.162 23.4756 181.491 22.7368C180.82 21.9979 180.309 21.1057 179.946 20.0532C179.589 19.0077 179.407 17.8437 179.407 16.5682C179.407 15.2926 179.589 14.1565 179.953 13.0831C180.316 12.0097 180.841 11.0896 181.512 10.3159C182.183 9.54225 183.008 8.93584 183.98 8.50369C184.952 8.07154 186.043 7.85547 187.253 7.85547C188.462 7.85547 189.476 8.0576 190.42 8.4549C191.364 8.8522 192.175 9.43072 192.853 10.1765C193.525 10.9293 194.049 11.8354 194.427 12.8949C194.804 13.9544 194.993 15.1323 194.993 16.4288V17.4534H195ZM193.357 16.1221C193.287 13.9125 192.7 12.2258 191.588 11.0478C190.476 9.87682 189.015 9.29132 187.211 9.29132C185.407 9.29132 183.938 9.89773 182.812 11.1036C181.694 12.3094 181.085 13.9822 180.994 16.1221H193.364H193.357Z" fill="white"/>
<path d="M52.5817 9.3192C55.4276 9.3192 57.742 11.6821 57.742 14.5956V24.6605H59.4551V14.4632C59.3152 10.7551 56.2946 7.85547 52.5747 7.85547C48.8548 7.85547 45.8272 10.762 45.6943 14.4701V14.5956V24.6536H47.4214V14.5886C47.4214 11.6821 49.7359 9.31223 52.5817 9.31223V9.3192Z" fill="white"/>
<path d="M151.578 9.3192C154.424 9.3192 156.739 11.6821 156.739 14.5956V24.6605H158.452V14.4632C158.312 10.7551 155.291 7.85547 151.571 7.85547C147.851 7.85547 144.824 10.762 144.691 14.4701V14.5956V24.6536H146.418V14.5886C146.418 11.6821 148.732 9.31223 151.578 9.31223V9.3192Z" fill="white"/>
</svg>